PathFileType	4	(X/Y/Z)	Kaydara	
DataRate	CameraRate	NumFrames	NumMarkers	Units	OrigDataRate	OrigDataStartFrame	OrigNumFrames	
240.00	240.00	4	72	mm	240.00	134	355	
Frame#	Time	Hips			RightUpLeg			RightLeg			RightFoot			RightFoot_End			LeftUpLeg			LeftLeg			LeftFoot			LeftFoot_End			Spine			Spine1			Spine2			Spine3			Neck			Head			Head_End			RightShoulder			RightArm			RightForeArm			RightHand			RightHandThumb1			RightHandThumb2			RightHandThumb3			RightHandThumb3_End			RightInHandIndex			RightHandIndex1			RightHandIndex2			RightHandIndex3			RightHandIndex3_End			RightInHandMiddle			RightHandMiddle1			RightHandMiddle2			RightHandMiddle3			RightHandMiddle3_End			RightInHandRing			RightHandRing1			RightHandRing2			RightHandRing3			RightHandRing3_End			RightInHandPinky			RightHandPinky1			RightHandPinky2			RightHandPinky3			RightHandPinky3_End			LeftShoulder			LeftArm			LeftForeArm			LeftHand			LeftHandThumb1			LeftHandThumb2			LeftHandThumb3			LeftHandThumb3_End			LeftInHandIndex			LeftHandIndex1			LeftHandIndex2			LeftHandIndex3			LeftHandIndex3_End			LeftInHandMiddle			LeftHandMiddle1			LeftHandMiddle2			LeftHandMiddle3			LeftHandMiddle3_End			LeftInHandRing			LeftHandRing1			LeftHandRing2			LeftHandRing3			LeftHandRing3_End			LeftInHandPinky			LeftHandPinky1			LeftHandPinky2			LeftHandPinky3			LeftHandPinky3_End			
		X1	Y1	Z1	X2	Y2	Z2	X3	Y3	Z3	X4	Y4	Z4	X5	Y5	Z5	X6	Y6	Z6	X7	Y7	Z7	X8	Y8	Z8	X9	Y9	Z9	X10	Y10	Z10	X11	Y11	Z11	X12	Y12	Z12	X13	Y13	Z13	X14	Y14	Z14	X15	Y15	Z15	X16	Y16	Z16	X17	Y17	Z17	X18	Y18	Z18	X19	Y19	Z19	X20	Y20	Z20	X21	Y21	Z21	X22	Y22	Z22	X23	Y23	Z23	X24	Y24	Z24	X25	Y25	Z25	X26	Y26	Z26	X27	Y27	Z27	X28	Y28	Z28	X29	Y29	Z29	X30	Y30	Z30	X31	Y31	Z31	X32	Y32	Z32	X33	Y33	Z33	X34	Y34	Z34	X35	Y35	Z35	X36	Y36	Z36	X37	Y37	Z37	X38	Y38	Z38	X39	Y39	Z39	X40	Y40	Z40	X41	Y41	Z41	X42	Y42	Z42	X43	Y43	Z43	X44	Y44	Z44	X45	Y45	Z45	X46	Y46	Z46	X47	Y47	Z47	X48	Y48	Z48	X49	Y49	Z49	X50	Y50	Z50	X51	Y51	Z51	X52	Y52	Z52	X53	Y53	Z53	X54	Y54	Z54	X55	Y55	Z55	X56	Y56	Z56	X57	Y57	Z57	X58	Y58	Z58	X59	Y59	Z59	X60	Y60	Z60	X61	Y61	Z61	X62	Y62	Z62	X63	Y63	Z63	X64	Y64	Z64	X65	Y65	Z65	X66	Y66	Z66	X67	Y67	Z67	X68	Y68	Z68	X69	Y69	Z69	X70	Y70	Z70	X71	Y71	Z71	X72	Y72	Z72	

134	0.554	3921.0129	906.651	56.2195	3986.044142757176	886.0049920198782	-2.113875687680371	3906.912884243867	483.2780709397341	-83.44618488012689	3915.8388843593907	104.79735646473077	-166.5542081550392	3841.1338295042374	28.29618107921065	-8.132723175692734	3864.362702477965	898.7121709727271	126.1812871963828	3802.754493816697	495.81875693884456	222.72800686705736	3752.834182487186	64.5541030903059	295.8020555265931	3622.315887917176	-12.804034866767132	179.68299252796163	3881.4283008420143	1034.42241567885	5.736307582831465	3832.9806405189056	1102.4488056883733	-43.34215584124402	3777.7095492603344	1167.703100552434	-96.69160611878213	3718.0095203549045	1220.6577788117484	-151.4367958249813	3653.6816443389725	1277.3088053130807	-209.24559211930924	3593.8744233033144	1328.7281324597857	-260.9475916328526	3473.757027255762	1421.4653044496242	-309.8298746785123	3694.20068246491	1257.6703317274137	-211.5642321430765	3745.2549754318397	1245.5760491907051	-315.65788592458017	3751.9661197749174	993.6210564055322	-297.0658507942145	3789.3250587799666	804.7107668758551	-373.7174368538451	3794.9407973735906	799.5622918578774	-387.5356608973618	3786.83287036264	792.8933663358904	-400.29114126427345	3781.3435555943033	785.9394252390423	-408.2629548104302	3776.9016983180304	778.1663362610979	-414.129280015811	3797.5848709299466	790.0424421215702	-385.5715498620261	3804.0085038622333	762.3836108507634	-400.1608681214547	3800.1145281202885	747.2371848485448	-410.1311294455523	3792.4761416737115	744.0996064478954	-415.83958113055627	3782.6344847120113	745.7379777819219	-420.23390511006545	3797.3908650763324	784.9180608888341	-382.57701860406735	3803.5537366158273	755.1675205067747	-395.18730848272463	3799.247750781427	738.0584428854092	-405.6241768466305	3790.0050071958185	733.994134858742	-412.2987867264843	3779.2231723371942	735.651212555056	-417.0037019835651	3797.177116614051	781.941246393231	-380.0878861851094	3802.7699536395417	752.5126129512881	-389.22496520792487	3798.9480248075733	737.0536906803898	-397.8494627402479	3789.9961101872896	732.8430905797405	-404.03682504937086	3779.841136610506	734.2636244970212	-408.34176768499884	3796.0574570915837	779.801979989577	-376.80580965884394	3800.791696278476	751.2735562209001	-383.163585156119	3797.598842240697	738.1706831031437	-389.2930569332334	3791.0052319471192	734.7492602935006	-393.43042803365876	3781.9727180057475	735.8060830885282	-397.02767558089005	3655.4200660852484	1259.9687053416842	-167.1293807836612	3602.2269202466937	1212.2313829783134	-73.62671260803609	3696.927971803978	1025.454266469358	-189.7393280842457	3811.264421780023	857.1264349013651	-297.7040754493351	3798.9042783655373	855.3780003676818	-316.8668234329686	3794.3636753112637	838.0093902692372	-345.0375208773411	3791.303522778266	823.483851258079	-364.3498760042846	3788.8396000713974	809.2957102670242	-380.1882152730989	3797.144796630735	847.203048016099	-316.8459298799433	3780.2354294465053	820.007150053991	-347.92535307574707	3773.7607527537166	797.3611922829632	-373.2024879814884	3773.869634140521	785.3299194080103	-388.7575525431438	3776.7483939801014	776.752879694361	-401.52474049052927	3798.262124235361	841.3634939819759	-315.1061104706459	3782.372089698516	811.67987847617	-344.4779352668421	3775.5158153677257	786.2816827379013	-371.73449856586547	3775.747428477175	771.4367545169563	-390.3447607728363	3778.946050799537	761.891673076421	-404.2383668729456	3799.426576617394	837.9483255661227	-313.0509653570153	3786.0316350553476	808.4294738607492	-337.4938163640759	3780.294852806504	785.6367799089081	-360.87179292534717	3780.6452834043043	770.9695464709939	-378.6216258597758	3783.712996204761	761.8298018654721	-391.5897495006734	3801.7031619162212	834.6702343017747	-310.0407934678099	3790.6260638229082	805.6213042482608	-330.5036299400907	3786.464227408736	786.4756598806978	-348.5262994416865	3786.928790105877	775.344813569082	-361.1356727031862	3789.7665392279405	766.9995735422349	-372.4291291474366
135	0.558	3921.0129	906.651	56.2195	3985.742302305246	885.8795411413364	-2.2029256592073354	3906.71109942137	483.10040122525754	-83.32008626855178	3916.130975346029	104.74233086517825	-166.63295090646398	3841.4378112166064	28.213079305774603	-8.219786354518803	3864.650195367987	898.8343752986061	126.27207949914539	3803.1256110477098	495.9501043821564	222.89798268984987	3752.9362816545104	64.67145262968307	295.66824785041115	3622.4895749534135	-12.7697557907125	179.53236060618335	3881.500078761078	1034.441214570083	5.732804125234798	3833.0691343631365	1102.5107797598637	-43.299811393752485	3777.8033521658863	1167.80836348061	-96.59333694454418	3718.101521653032	1220.8157425702605	-151.26814746138606	3653.769973695716	1277.5189034473485	-209.00274774480548	3593.9568389078668	1328.9838838057033	-260.6344531457951	3473.804065464309	1421.6877155062634	-309.4695744850723	3694.2017468836007	1257.7921928433225	-211.34207301103942	3745.0020669519326	1245.5144256527058	-315.24305613830916	3751.5071781869915	994.013360827765	-296.43201968043945	3788.5727322768244	806.4250365372355	-372.7585110114055	3794.156928256147	801.4477108611796	-386.60342584244074	3786.0080679338043	794.9032630451056	-399.3112299636457	3780.4913633109263	788.0364871729605	-407.2455424410189	3776.0276273155196	780.3364734778182	-413.0769265165911	3796.8028962247163	791.953363925128	-384.63291920565894	3803.181947896028	764.5618394274823	-399.20886409371474	3799.252742891287	749.5582541870257	-409.1347403978993	3791.592696294242	746.4646465546328	-414.80088350434045	3781.7332743293487	748.1091712526943	-419.1502628379248	3796.6132780576545	786.8189287789932	-381.6254927548693	3802.735040924374	757.323685650924	-394.2157736692439	3798.39133117914	740.3682278610625	-404.6025073510724	3789.122800085637	736.3558902058805	-411.22525615637807	3778.3216948762783	738.0191763968576	-415.8805970731151	3796.403808263596	783.8286846670674	-379.12791661229056	3801.963638246952	754.6186380203565	-388.240685938643	3798.1096277554966	739.2909065264728	-396.8197743425134	3789.1332629221133	735.128999432754	-402.95620372157083	3778.9603711996533	736.5546899852724	-407.2141030111687	3795.2900477942985	781.6622982004653	-375.83393193516025	3799.9977734451	753.3193882895973	-382.1631573459332	3796.7806191599557	740.3163903783515	-388.2537002720363	3790.1698465618497	736.9279802826106	-392.352679186642	3781.121847055353	737.9879298137504	-395.90753944405174	3655.6032924475235	1260.234427774534	-166.91817830060214	3602.7273161852954	1212.868878875888	-73.42923710208653	3696.851671764482	1025.9490078505971	-189.2359608590169	3810.3903420228266	857.9631643109386	-296.7735122583406	3797.9728476469904	856.2728878007729	-315.90516029881894	3793.373649670784	838.9839669670638	-344.01904743179114	3790.282495596813	824.5189592090372	-363.28132538832256	3787.8011156237567	810.3855891573489	-379.0689227937243	3796.245850448471	848.1219883440465	-315.8420122410238	3779.3235773221745	821.0675353848142	-346.7777322709588	3772.8260248272873	798.5164609628549	-371.9639941794168	3772.9060727923243	786.5271515630109	-387.48729067400706	3775.751111415442	777.9733605492139	-400.2448636732897	3797.3896324076445	842.2910397728003	-314.07903081277067	3781.5013228024777	812.7500408480233	-343.29816076706044	3774.623601716378	787.4560541389023	-370.4529850105107	3774.8221150561612	772.6620755275271	-389.0236825688725	3777.9846601521044	763.1425892701922	-402.9061667306665	3798.573306637605	838.8784387634123	-312.0109986517147	3785.1971898152246	809.4899125160875	-336.30526198674085	3779.445302313018	786.7885086233881	-359.5921693923681	3779.7657107911396	772.1706651397693	-377.3025687408652	3782.800404647329	763.0551026861243	-390.2596324933331	3800.8708240480823	835.5984435496495	-308.99163421417916	3789.8245721694666	806.6682454337131	-329.3118356259795	3785.656153862508	787.5958533032202	-347.2584963627974	3786.101485565442	776.5011051036654	-359.8376147604107	3788.9115204792697	768.1773282202347	-371.1204156039461
136	0.563	3921.0129	906.651	56.2195	3985.43942787413	885.754667598246	-2.289449778980456	3906.505028931715	482.9236702351197	-83.1907059832231	3916.4160040751112	104.68818398852767	-166.70878240077323	3841.7347675203455	28.130624795414057	-8.304045235535034	3864.938422428148	898.9558504448765	126.3601605308919	3803.498559191528	496.08062721866173	223.0653682181475	3753.0428648981333	64.78904794271622	295.5352796248931	3622.6679517903426	-12.735351154375863	179.38249465873983	3881.5732365649646	1034.4606861577677	5.730056390003176	3833.159850452491	1102.5750201288727	-43.25558962747718	3777.899556324867	1167.9170926138318	-96.492124026148	3718.194997823049	1220.9772603238491	-151.09548297995386	3653.858924919534	1277.7327630525672	-208.75472481048212	3594.039446107853	1329.2437878948513	-260.31516716844465	3473.8544797875747	1421.9177876215736	-309.1038376648162	3694.2031464922575	1257.9185441642999	-211.1141362183165	3744.749631452704	1245.4665912479218	-314.82432376861846	3751.0578480699446	994.4223496081764	-295.79762320134023	3787.806366591902	808.1418459799729	-371.77865436613445	3793.3613534981437	803.3321651771511	-385.6513289289859	3785.170228883283	796.9044577419807	-398.31202380120203	3779.6242885008287	790.1196720219899	-406.20866767629565	3775.1363487549706	782.4886017876955	-412.00448987392105	3796.0062237984002	793.8642102520727	-383.67237779378337	3802.335897064205	766.7348526034447	-398.23193320991635	3798.3676533161693	751.8681463660232	-408.11202539742317	3790.6844404579956	748.8137192018797	-413.7360663685417	3780.8065885177657	750.4597012265571	-418.04139792442146	3795.818638366043	788.7203666234246	-380.650664833932	3801.8933398784693	759.4757571967832	-393.21724221557514	3797.5074535631065	742.6675126401233	-403.55214158911207	3788.2111759844347	738.7014134600481	-410.12319540334937	3777.3900038140446	740.3657929064301	-414.7299029735394	3795.611903670321	785.7173046461534	-378.1437275851073	3801.1320455579735	756.7222682746171	-387.22804648706546	3797.241779564572	741.520251668008	-395.76007355471626	3788.2389193686145	737.4015661249756	-401.84563951635556	3778.047286793478	738.8276308914808	-406.05733723973265	3794.5024193711133	783.5244583895151	-374.83695447426965	3799.176494305234	755.3642698997567	-381.13325006155753	3795.931269709309	742.456946407982	-387.1832928159289	3789.3016361486484	739.0976471670907	-391.24381010688353	3780.2373031813036	740.1565382366756	-394.75695963863853	3655.787989620112	1260.5029848523834	-166.7032159938256	3603.235455045293	1213.5106484271182	-73.23037268871823	3696.7997180342068	1026.4535336834158	-188.7161683669636	3809.5379837841174	858.8152524476848	-295.80184611441575	3797.0557486912267	857.1911738488778	-314.8987265096687	3792.3963126174717	839.9942983030015	-342.95527714359787	3789.274605707072	825.5978110365721	-362.1678297501154	3786.7775053178952	811.5253456228838	-377.905593054713	3795.3661166005368	849.0623417937329	-314.79543120024545	3778.433669443143	822.158541543387	-345.5882950266806	3771.9159538055005	799.7115178659575	-370.6849734082267	3771.9677906263146	787.7711730430296	-386.17703697278796	3774.7789052399785	779.2473036240679	-398.92525815561123	3796.540629138546	843.2381352525201	-313.01124512956943	3780.6590218455963	813.8477250972136	-342.0795649035052	3773.763370449102	788.6676785940112	-369.134313555782	3773.9298017621704	773.9329655132642	-387.6662151092044	3777.0561775551637	764.4463122599635	-401.5379250592722	3797.7464793534587	839.8265199414074	-310.93168496210217	3784.3962203834785	810.5740024318527	-335.08022280778823	3778.6328533687306	787.9720797660909	-358.2777700748823	3778.9245192488224	773.4114933204431	-375.94961485715913	3781.9262487026704	764.3268452747878	-388.8960108812714	3800.0682331496487	836.542769069574	-307.90468747621145	3789.061325265253	807.7352755301058	-328.0858331619123	3784.890072677244	788.7422169884094	-345.95824544871414	3785.317515048698	777.689074031143	-358.507939681061	3788.1001191137693	769.3925909549074	-369.7805413757604
137	0.567	3921.0129	906.651	56.2195	3985.1352298140214	885.6302310237194	-2.3735787437076494	3906.293866675573	482.7478695751305	-83.05849564521178	3916.6935086428766	104.63499876543395	-166.78236673355624	3842.0242192916694	28.048921588937567	-8.386163133444503	3865.2276722380107	899.0767310138913	126.4456488802915	3803.873372267077	496.2104571634293	223.23009754558976	3753.154912682686	64.90736967034043	295.4047845505037	3622.8519414565144	-12.700207820361364	179.23501117821797	3881.6477862605434	1034.4808608245933	5.728123805907306	3833.252517971594	1102.6413036322942	-43.209489073877386	3777.997734899303	1168.028938750715	-96.3879802317972	3718.289356214803	1221.1418165773534	-150.91883439691796	3653.9477294371763	1277.9497003788813	-208.50156430887523	3594.121397330637	1329.5070578195407	-259.9898048217905	3473.907389348596	1422.1548402648143	-308.7324953034342	3694.204084323771	1258.0487287899134	-210.8804809408811	3744.496868399672	1245.4327826060273	-314.4019906101622	3750.618577631882	994.8485493040604	-295.16116678078964	3787.024863503882	809.8555190071098	-370.7780934324936	3792.5535824555495	805.2100049257382	-384.6797714197298	3784.319475135764	798.8906625012644	-397.29437467213086	3778.7427819676477	792.1821514556092	-405.15350653428857	3774.2285040149413	784.6153601661388	-410.91342513229165	3795.194043954869	795.7690233286171	-382.69035846458746	3801.4697263438225	768.8957583363666	-397.23095448890314	3797.4588938034294	754.1591371420759	-407.06428821268577	3789.7513069898564	751.1386336062063	-412.64671724996936	3779.8546996024907	752.7810250539244	-416.90914605385933	3795.005870327468	790.6161792211636	-379.6529856042842	3801.027594021487	761.6165003103073	-392.19260973890556	3796.5953260377205	744.9481257720134	-402.4744397205189	3787.269685977273	741.0219566199119	-408.9943074893967	3776.4280134180003	742.6819224234679	-413.55359447943954	3794.8001326013114	787.6007682640396	-377.13577014016096	3800.2737632570165	758.8161129383257	-386.1878938684167	3796.3432473412136	743.7334914389667	-394.67161268200175	3787.3121581620408	739.651985239819	-400.70671566250246	3777.101294364815	741.0732666137726	-404.8733092369838	3793.6930872145167	785.3819767461778	-373.8153236148484	3798.3261053516103	757.4006650178959	-380.0746667010216	3795.0491279729904	744.584101045489	-386.0829614041253	3788.399134901268	741.249575931658	-390.1051884750027	3779.317899359524	742.3028803069884	-393.5775299908404	3655.9735387160244	1260.7737791160941	-166.48451248894315	3603.750982154059	1214.156025513208	-73.03017409921125	3696.77587516084	1026.9675874263783	-188.1769910179224	3808.7092300238396	859.680444610215	-294.78530223076905	3796.1556582904313	858.1311468464114	-313.8436032551606	3791.4352620283253	841.0384112366773	-341.8414949087623	3788.284045940307	826.7181246278675	-361.0041354439532	3785.773418196999	812.7123311857692	-376.6925371360911	3794.5081628073976	850.0220377968806	-313.70238207423574	3777.569213623645	823.2777056230104	-344.35294718957215	3771.0347831248364	800.9433773632232	-369.36075625965765	3771.0594980230067	789.0586701263433	-384.82156863560067	3773.8368788018834	780.5711215398574	-397.56011104309033	3795.7175268467763	844.2023660597447	-311.8989845624471	3779.848432161765	814.9699483033596	-340.8181159623803	3772.939146166255	789.9129583859642	-367.77382996787964	3773.0750653011696	775.2454096243027	-386.2670390061877	3776.1656042263103	765.7985174027276	-400.12767801702853	3796.9483725308646	840.789923486428	-309.80929196932254	3783.631631334522	811.6783924737902	-333.81477389699063	3777.8610645004737	789.1835618399131	-356.92413313872635	3778.125786440373	774.6876735215853	-374.55766379457356	3781.0949988256075	765.6403696540721	-387.4931797369344	3799.297491989115	837.5002972740575	-306.7762411631632	3788.3388900347336	808.8186739696731	-326.821759065407	3784.169032303557	789.9104992673941	-344.62126296909815	3784.580285283184	778.9041258554697	-357.141902638165	3787.3360780771905	770.6404808234079	-368.40422882590235
